<?xml version="1.0" encoding="utf-8"?>
<!-- Generator: Adobe Illustrator 15.1.0, SVG Export Plug-In . SVG Version: 6.00 Build 0)  -->
<!DOCTYPE svg PUBLIC "-//W3C//DTD SVG 1.1//EN" "http://www.w3.org/Graphics/SVG/1.1/DTD/svg11.dtd">
<svg version="1.1" id="Layer_1" xmlns="http://www.w3.org/2000/svg" xmlns:xlink="http://www.w3.org/1999/xlink" x="0px" y="0px"
	 width="149.167px" height="172.243px" viewBox="0 0 149.167 172.243" enable-background="new 0 0 149.167 172.243"
	 xml:space="preserve">
<polygon fill="#585858" points="149.167,129.183 74.583,172.243 0,129.183 0,43.061 74.583,0 149.167,43.061 "/>
<g>
	<path fill-rule="evenodd" clip-rule="evenodd" fill="#FFFFFF" d="M39.684,32.186h6.346h6.344h6.346h6.346h6.346h6.344h6.348h6.344
		h6.348h6.344h6.344c3.496,0,6.348,2.851,6.348,6.346h-6.348h-6.344h-6.344h-6.348h-6.344h-6.348h-6.344h-6.346H58.72h-6.346H46.03
		h-6.346v6.346v6.346v6.344v6.346v6.346v6.346v6.346v6.344v6.346v6.346v6.346v6.345v6.346v6.346v6.346v6.346h-6.346v-6.346v-6.346
		v-6.346v-6.346v-6.345v-6.346v-6.346v-6.346V82.95v-6.346v-6.346v-6.346v-6.346v-6.344v-6.346v-6.346
		C33.338,35.037,36.188,32.186,39.684,32.186L39.684,32.186z"/>
	<path fill-rule="evenodd" clip-rule="evenodd" fill="#FFFFFF" d="M96.794,44.877h-6.348h-6.344h-6.348h-6.344h-6.346H58.72h-6.346
		H46.03v6.346v6.344v6.346v6.346v6.346v6.346v6.344v6.346v6.346v6.346v6.345v6.346v6.346v6.346v6.346h6.344h6.346h6.346h6.346h6.344
		h6.348h6.344h6.348h6.344h6.344c3.496,0,6.348-2.852,6.348-6.346v-6.346v-6.346v-6.346v-6.345v-6.346v-6.346v-6.346V82.95v-6.346
		v-6.346v-6.346v-6.346v-6.344c0-3.496-2.852-6.346-6.348-6.346h-6.344H96.794L96.794,44.877z M103.138,133.712h-6.344h-6.348
		h-6.344h-6.348h-6.344h-6.346H58.72h-6.346v-6.346v-6.346v-6.346v-6.345v-6.346v-6.346v-6.346V82.95v-6.346v-6.346v-6.346v-6.346
		v-6.344h6.346h6.346h6.346h6.344h6.348h6.344h6.348h6.344h6.344v6.344v6.346v6.346v6.346v6.346v6.344v6.346v6.346v6.346v6.345
		v6.346v6.346v6.346H103.138L103.138,133.712z"/>
	<path fill-rule="evenodd" clip-rule="evenodd" fill="#FFFFFF" d="M71.411,82.95v-6.346c0-3.496,2.85-6.346,6.344-6.346h6.348h6.344
		h6.348c3.492,0,6.344,2.85,6.344,6.346h-6.344h-6.348h-6.344h-6.348v6.346v6.344v6.346h6.348h6.344h6.348
		c3.492,0,6.344,2.852,6.344,6.346v6.346v6.345v6.346c0,3.495-2.852,6.346-6.344,6.346h-6.348h-6.344h-6.348
		c-3.495,0-6.344-2.851-6.344-6.346h6.344h6.348h6.344h6.348v-6.346v-6.345v-6.346h-6.348h-6.344h-6.348
		c-3.495,0-6.344-2.85-6.344-6.346v-6.346V82.95L71.411,82.95z"/>
	<polygon fill-rule="evenodd" clip-rule="evenodd" fill="#FFFFFF" points="58.72,57.567 65.065,57.567 71.411,57.567 77.755,57.567 
		84.103,57.567 90.447,57.567 96.794,57.567 103.138,57.567 103.138,63.913 96.794,63.913 90.447,63.913 84.103,63.913 
		77.755,63.913 71.411,63.913 65.065,63.913 65.065,70.258 65.065,76.604 65.065,82.95 65.065,89.293 65.065,95.639 65.065,101.985 
		65.065,108.331 71.411,108.331 77.755,108.331 84.103,108.331 90.447,108.331 90.447,114.675 84.103,114.675 77.755,114.675 
		71.411,114.675 65.065,114.675 65.065,121.021 65.065,127.367 58.72,127.367 58.72,121.021 58.72,114.675 58.72,108.331 
		58.72,101.985 58.72,95.639 58.72,89.293 58.72,82.95 58.72,76.604 58.72,70.258 58.72,63.913 58.72,57.567 	"/>
</g>
</svg>
